<svg width="14" height="8" viewBox="0 0 14 8" fill="none" xmlns="http://www.w3.org/2000/svg">
<path d="M12.8546 0.146893C12.9012 0.193339 12.9381 0.248515 12.9633 0.30926C12.9885 0.370005 13.0015 0.435126 13.0015 0.500894C13.0015 0.566661 12.9885 0.631782 12.9633 0.692527C12.9381 0.753272 12.9012 0.808448 12.8546 0.854894L6.85462 6.85489C6.80818 6.90146 6.753 6.9384 6.69226 6.96361C6.63151 6.98881 6.56639 7.00179 6.50062 7.00179C6.43486 7.00179 6.36974 6.98881 6.30899 6.96361C6.24825 6.9384 6.19307 6.90146 6.14662 6.85489L0.146625 0.854893C0.0527379 0.761006 -6.70342e-06 0.633669 -6.69761e-06 0.500893C-6.69181e-06 0.368117 0.0527379 0.24078 0.146625 0.146893C0.240511 0.0530063 0.367849 0.000261231 0.500625 0.000261237C0.6334 0.000261243 0.760738 0.0530063 0.854625 0.146893L6.50062 5.79389L12.1466 0.146893C12.1931 0.10033 12.2482 0.0633872 12.309 0.0381808C12.3697 0.0129744 12.4349 -2.47695e-08 12.5006 -2.18948e-08C12.5664 -1.902e-08 12.6315 0.0129744 12.6923 0.0381808C12.753 0.0633873 12.8082 0.10033 12.8546 0.146893V0.146893Z" fill="#717171"/>
</svg>
